<?xml version="1.0" encoding="UTF-8"?>
<svg version="1.1" xmlns="http://www.w3.org/2000/svg" width="800" height="600">
<path d="M0 0 C7.05566169 6.14869573 9.92818431 12.78897507 11 22 C11.08312375 24.49752018 11.11785624 26.99695028 11.11352539 29.49584961 C11.11367142 30.20888245 11.11381744 30.92191528 11.1139679 31.65655518 C11.11327713 33.9885168 11.1055243 36.32039626 11.09765625 38.65234375 C11.0957891 40.27901669 11.0943666 41.90569019 11.09336853 43.53236389 C11.08956677 47.79515154 11.07975668 52.05790463 11.06866455 56.32067871 C11.0583999 60.67797376 11.05386012 65.03527444 11.04882812 69.39257812 C11.03813213 77.9284012 11.02108409 86.46419629 11 95 C6.71 95 2.42 95 -2 95 C-2.029729 92.04196411 -2.029729 92.04196411 -2.06005859 89.02416992 C-2.12813962 82.47027149 -2.20493658 75.91651924 -2.28752708 69.3627882 C-2.33723328 65.39366765 -2.38356298 61.42457045 -2.421875 57.45532227 C-2.45905546 53.61669967 -2.50549856 49.77828577 -2.55806351 45.93984413 C-2.57643515 44.48365291 -2.59160488 43.02741725 -2.60334396 41.57115746 C-2.22179604 25.20998038 -2.22179604 25.20998038 -9 11 C-15.79564484 7.63708671 -23.88949627 7.9576482 -31 10.3125 C-38.39418161 13.62547747 -45.54060182 20.31090273 -50 27 C-50.33018315 30.05384162 -50.33018315 30.05384162 -50.31884766 33.58276367 C-50.32889328 34.24644455 -50.3389389 34.91012543 -50.34928894 35.59391785 C-50.38015313 37.78525942 -50.39716468 39.97647865 -50.4140625 42.16796875 C-50.43277159 43.68826859 -50.45234481 45.20855801 -50.4727478 46.72883606 C-50.52410257 50.72856512 -50.56371026 54.72832786 -50.60089111 58.72821045 C-50.64090988 62.8104284 -50.6920119 66.89250586 -50.7421875 70.97460938 C-50.83898644 78.9829841 -50.92235402 86.99141665 -51 95 C-55.29 95 -59.58 95 -64 95 C-64 62.99 -64 30.98 -64 -2 C-60.04 -2 -56.08 -2 -52 -2 C-50.05909174 -0.05909174 -50.60080565 3.47293902 -50.4375 6.0625 C-50.35371094 7.35285156 -50.26992188 8.64320313 -50.18359375 9.97265625 C-50.12300781 10.97167969 -50.06242188 11.97070312 -50 13 C-49.53851562 12.49210937 -49.07703125 11.98421875 -48.6015625 11.4609375 C-36.32585512 -1.49405804 -16.85499182 -10.57510032 0 0 Z " fill="#FFFFFF" transform="translate(633,257)"/>
<path d="M0 0 C7.2423261 5.92553954 12.66820495 13.02479054 14.75 22.25 C10.39068715 23.94939315 6.36372741 25.41775145 1.75 26.25 C1.47027344 25.45335937 1.19054687 24.65671875 0.90234375 23.8359375 C-2.07505668 15.96640969 -4.89492418 10.85541567 -12.5703125 7.12109375 C-18.53282614 5.18284223 -26.29862588 5.11883815 -32.1875 7.4375 C-40.89500409 12.59092079 -44.17963222 18.34945182 -47.5 27.8125 C-50.88153179 43.31118736 -50.23371525 58.68095945 -42.58984375 72.75390625 C-41.25 75.25 -41.25 75.25 -40.25 78.25 C-38.50132517 79.33431094 -38.50132517 79.33431094 -36.25 80.25 C-35.26 80.765625 -34.27 81.28125 -33.25 81.8125 C-26.51607923 85.03917037 -19.63847029 85.17186434 -12.5 83.0625 C-3.7404581 79.72264 -0.98841653 72.30493871 2.75 64.25 C7.0677458 64.75797009 10.78302114 65.44682779 14.75 67.25 C14.32139204 75.39355123 9.26045079 82.1418732 3.5625 87.625 C-5.41207931 95.04138857 -16.52329501 96.95825432 -27.9453125 96.03125 C-38.8436872 94.25471243 -47.41646592 88.86391843 -54.25 80.25 C-64.07546627 65.10419392 -65.3530827 46.28358885 -62.125 28.875 C-59.17686026 17.10961282 -53.89629652 7.7848754 -44.25 0.25 C-29.72685275 -8.09840517 -14.66404698 -7.89602529 0 0 Z " fill="#FFFFFF" transform="translate(229.25,258.75)"/>
<path d="M0 0 C0 11.22 0 22.44 0 34 C7.92 34 15.84 34 24 34 C24 37.63 24 41.26 24 45 C16.08 45 8.16 45 0 45 C0.0629934 53.76269494 0.13846705 62.52504103 0.23571491 71.28742409 C0.28037978 75.35647208 0.31964426 79.42542086 0.34643555 83.49462891 C0.37250758 87.42407931 0.41293704 91.35314709 0.46318626 95.28236008 C0.47982873 96.77895715 0.49135932 98.27562037 0.49761391 99.77229691 C0.50728401 101.87415616 0.53537527 103.97504237 0.56762695 106.07666016 C0.57873001 107.27134918 0.58983307 108.46603821 0.60127258 109.69692993 C1.13740244 114.13824602 2.69226705 117.45596876 5.578125 120.86328125 C9.51310768 122.71018441 13.46831681 122.31082765 17.75 122.1875 C18.63816406 122.17396484 19.52632813 122.16042969 20.44140625 122.14648438 C22.62822578 122.11121309 24.81379966 122.06192752 27 122 C26.85957123 123.64630328 26.71250671 125.29204179 26.5625 126.9375 C26.48128906 127.85402344 26.40007812 128.77054688 26.31640625 129.71484375 C26 132 26 132 25 133 C15.08550148 134.28137775 3.87019003 135.45463547 -4.9375 129.8125 C-9.30048158 126.27607848 -11.98954961 121.5336958 -13 116 C-13.0879269 113.67746246 -13.11764631 111.35251797 -13.11352539 109.02832031 C-13.11367142 108.3352327 -13.11381744 107.64214508 -13.1139679 106.92805481 C-13.11327307 104.64471267 -13.10550085 102.36145283 -13.09765625 100.078125 C-13.09579054 98.49200485 -13.09436736 96.90588412 -13.09336853 95.31976318 C-13.08955538 91.15063885 -13.07973537 86.9815495 -13.06866455 82.81243896 C-13.05842457 78.55595371 -13.05386537 74.29946278 -13.04882812 70.04296875 C-13.03811202 61.69529647 -13.02105004 53.34765259 -13 45 C-14.14339844 45.01160156 -15.28679687 45.02320313 -16.46484375 45.03515625 C-17.95572754 45.04453288 -19.44661309 45.05363321 -20.9375 45.0625 C-21.69224609 45.07087891 -22.44699219 45.07925781 -23.22460938 45.08789062 C-25.14994313 45.09652441 -27.07535581 45.05224333 -29 45 C-30 44 -30 44 -30.1328125 41.96875 C-30.13023437 41.1540625 -30.12765625 40.339375 -30.125 39.5 C-30.12757813 38.6853125 -30.13015625 37.870625 -30.1328125 37.03125 C-30 35 -30 35 -29 34 C-26.3013095 33.92674564 -23.63497444 33.90777649 -20.9375 33.9375 C-18.318125 33.958125 -15.69875 33.97875 -13 34 C-13 23.77 -13 13.54 -13 3 C-8.37173052 1.14869221 -4.92932888 0 0 0 Z " fill="#FFFFFF" transform="translate(340,221)"/>
<path d="M0 0 C10.97196376 8.11502067 20.23554085 20.36556629 22.54785156 34.16235352 C23.99401965 51.48958968 21.65864575 67.54069858 10.12036133 81.34399414 C-1.47294108 94.39867213 -16.35272634 101.71506677 -33.80371094 102.93969727 C-49.84340609 102.62945171 -63.90124757 95.75763752 -75.24121094 84.68969727 C-86.79060975 71.70335925 -91.81885584 57.44019924 -91.48339844 40.20141602 C-90.37341802 24.10669996 -82.21022376 10.21330783 -70.24121094 -0.31030273 C-49.16354591 -16.88488875 -21.36837385 -15.08776252 0 0 Z M-75.68261719 15.32641602 C-84.28916609 28.37644631 -88.56814262 41.41408762 -85.58886719 57.13110352 C-82.32776282 68.98584772 -74.99559937 79.69015735 -64.56933594 86.41235352 C-49.96387552 94.62288168 -36.02930887 97.9057421 -19.54199219 93.72094727 C-5.96849342 89.48023286 5.17378291 80.75308472 12.75878906 68.68969727 C18.32059643 57.19303448 19.66984247 45.23137557 16.13378906 32.87719727 C10.91407024 17.9323181 1.62705353 7.87826095 -12.17871094 0.50219727 C-34.1185362 -9.77940712 -60.36344541 -3.73659325 -75.68261719 15.32641602 Z " fill="#FFFFFF" transform="translate(528.2412109375,257.310302734375)"/>
<path d="M0 0 C0.02696365 1.79158489 0.04637917 3.58328473 0.0625 5.375 C0.07410156 6.37273437 0.08570313 7.37046875 0.09765625 8.3984375 C0 11 0 11 -1 13 C-2.68941463 13.50565524 -4.40347306 13.93019906 -6.125 14.3125 C-14.92316728 16.6313968 -19.05520006 20.52279814 -24.2265625 27.9140625 C-29.6258076 37.30922469 -31.74300083 44.65846439 -31.70703125 55.54296875 C-31.72215256 56.79257889 -31.73727386 58.04218903 -31.75285339 59.32966614 C-31.78827811 62.61278046 -31.80286779 65.89507139 -31.80688477 69.17834473 C-31.81629172 72.54419385 -31.85375117 75.90972664 -31.88867188 79.27539062 C-31.95130163 85.85032757 -31.9838135 92.42479136 -32 99 C-35.96 99 -39.92 99 -44 99 C-44 66.99 -44 34.98 -44 2 C-40.04 2 -36.08 2 -32 2 C-31.67 8.6 -31.34 15.2 -31 22 C-30.113125 20.618125 -29.22625 19.23625 -28.3125 17.8125 C-23.3086798 10.34759341 -16.84906092 3.80812441 -8.3125 0.625 C-5.41314859 0.07795256 -2.92960843 -0.04990815 0 0 Z " fill="#FFFFFF" transform="translate(434,253)"/>
<path d="M0 0 C3.96 0 7.92 0 12 0 C13.89977088 1.89977088 13.12012643 4.68939065 13.12442017 7.21670532 C13.12082489 8.11078094 13.11722961 9.00485657 13.11352539 9.92602539 C13.11367142 10.86251419 13.11381744 11.79900299 13.1139679 12.76387024 C13.11326837 15.87515539 13.10547415 18.98638149 13.09765625 22.09765625 C13.09579221 24.24857043 13.09436824 26.39948503 13.09336853 28.55039978 C13.08954225 34.22381758 13.07971102 39.89720995 13.06866455 45.57061768 C13.0584528 51.35501766 13.05387142 57.13942173 13.04882812 62.92382812 C13.03808885 74.28256328 13.02101111 85.64127953 13 97 C8.71 97 4.42 97 0 97 C0 64.99 0 32.98 0 0 Z " fill="#FFFFFF" transform="translate(272,255)"/>
<path d="M0 0 C10.38092127 1.31491669 18.13373134 3.23784553 25.4609375 11 C30.0287445 16.93583041 32.16005342 23.83594031 32.0625 31.25 C32.05347656 32.14203125 32.04445313 33.0340625 32.03515625 33.953125 C32.02355469 34.62859375 32.01195312 35.3040625 32 36 C27.34560476 34.44853492 25.81815741 30.94542037 23 27 C26.465 32.94 26.465 32.94 30 39 C28 40 28 40 25.49609375 39.25 C14.29620935 34.67278032 3.08075131 27.59717866 -2 16.0625 C-3.41070409 11.68325907 -3.16067037 7.42451034 -2 3 C-1.34 2.01 -0.68 1.02 0 0 Z " fill="#FFFFFF" transform="translate(460,202)"/>
<path d="M0 0 C2.04541016 1.17993164 2.04541016 1.17993164 4.0390625 2.66015625 C4.77979004 3.20309326 5.52051758 3.74603027 6.28369141 4.30541992 C7.05632324 4.88525635 7.82895508 5.46509277 8.625 6.0625 C10.2291225 7.24745563 11.83328911 8.43235154 13.4375 9.6171875 C14.60345703 10.4848877 14.60345703 10.4848877 15.79296875 11.37011719 C17.72145472 12.79429554 19.66415134 14.19124183 21.625 15.5703125 C22.615 16.26898438 23.605 16.96765625 24.625 17.6875 C25.48351562 18.28949219 26.34203125 18.89148438 27.2265625 19.51171875 C27.81179688 20.00285156 28.39703125 20.49398438 29 21 C29 21.66 29 22.32 29 23 C25.20245738 24.26584754 21.63943072 24.14297986 17.68359375 24.1328125 C16.87132828 24.13376923 16.05906281 24.13472595 15.22218323 24.13571167 C13.50660118 24.13639173 11.79101655 24.13454955 10.07543945 24.13037109 C7.4441147 24.12501347 4.81296011 24.13032549 2.18164062 24.13671875 C0.51562462 24.13605807 -1.15039127 24.13477713 -2.81640625 24.1328125 C-3.60600235 24.13483673 -4.39559845 24.13686096 -5.2091217 24.13894653 C-10.77007025 24.11496487 -10.77007025 24.11496487 -13 23 C-13.62435573 14.72728661 -11.11087744 7.18594324 -7 0 C-4.26396484 -1.36801758 -2.91290153 -0.80793636 0 0 Z " fill="#FFFFFF" transform="translate(460,278)"/>
<path d="M0 0 C0.66 1.32 1.32 2.64 2 4 C-1.34214765 6.63563668 -4.6873408 9.26717345 -8.0390625 11.890625 C-10.58779412 13.88615324 -13.12319825 15.89672404 -15.6484375 17.921875 C-16.78627498 18.8231482 -17.92428825 19.72419952 -19.0625 20.625 C-20.08472656 21.44226563 -21.10695313 22.25953125 -22.16015625 23.1015625 C-24.92483964 24.94975525 -26.7300473 25.65200503 -30 26 C-34.75804188 19.01893855 -40.12610184 10.78359436 -39 2 C-37.14807211 0.14807211 -34.10596689 0.75945883 -31.62109375 0.68359375 C-30.30689453 0.64169922 -28.99269531 0.59980469 -27.63867188 0.55664062 C-26.94829834 0.53706299 -26.2579248 0.51748535 -25.54663086 0.49731445 C-23.47036833 0.43843214 -21.39438768 0.37322601 -19.31835938 0.30664062 C-12.87760102 0.10566773 -6.44415223 -0.05805543 0 0 Z " fill="#FFFFFF" transform="translate(486,304)"/>
<path d="M0 0 C6.65266331 19.77568677 6.65266331 19.77568677 9.4375 28.5625 C9.74558594 29.53316406 10.05367188 30.50382812 10.37109375 31.50390625 C11 34 11 34 11 38 C7.16358323 37.45635452 4.90717292 36.50019053 1.890625 34.0859375 C1.13523437 33.48910156 0.37984375 32.89226562 -0.3984375 32.27734375 C-1.17445313 31.64957031 -1.95046875 31.02179688 -2.75 30.375 C-3.51054687 29.77042969 -4.27109375 29.16585938 -5.0546875 28.54296875 C-6.5924918 27.32054465 -8.12570838 26.09232711 -9.65429688 24.85839844 C-11.26374626 23.58330178 -12.89693804 22.33777793 -14.54882812 21.11816406 C-15.36287109 20.51456055 -16.17691406 19.91095703 -17.015625 19.2890625 C-17.75586914 18.7523291 -18.49611328 18.2155957 -19.25878906 17.66259766 C-21.2431504 15.76782751 -21.80646476 14.7252782 -22 12 C-16.9939662 5.61299136 -8.19350682 -1.9405674 0 0 Z M-2 14 C-1 16 -1 16 -1 16 Z " fill="#FFFFFF" transform="translate(480,259)"/>
<path d="M0 0 C1.26092972 0.00212242 1.26092972 0.00212242 2.54733276 0.00428772 C5.23732025 0.00989388 7.92722509 0.02244739 10.6171875 0.03515625 C12.43880088 0.04017046 14.26041557 0.0447335 16.08203125 0.04882812 C20.55211527 0.05986531 25.02213736 0.07713405 29.4921875 0.09765625 C29.51116057 1.53282612 29.52467101 2.96806887 29.53588867 4.40332031 C29.54805672 5.60217865 29.54805672 5.60217865 29.56047058 6.82525635 C29.38245247 12.74953983 26.94078298 19.06263715 22.7421875 23.28515625 C21.9996875 23.88328125 21.2571875 24.48140625 20.4921875 25.09765625 C14.56725938 21.90362492 9.25520612 18.12183266 3.8671875 14.09765625 C3.03445313 13.48148437 2.20171875 12.8653125 1.34375 12.23046875 C-0.9480716 10.52984954 -3.22974286 8.81663137 -5.5078125 7.09765625 C-6.52617187 6.33453125 -7.54453125 5.57140625 -8.59375 4.78515625 C-9.22539062 4.22828125 -9.85703125 3.67140625 -10.5078125 3.09765625 C-10.5078125 2.43765625 -10.5078125 1.77765625 -10.5078125 1.09765625 C-7.22889325 -0.54180338 -3.60167716 -0.02264553 0 0 Z " fill="#FFFFFF" transform="translate(510.5078125,304.90234375)"/>
<path d="M0 0 C0.99 0.33 1.98 0.66 3 1 C1.64935322 8.92148184 -0.57221587 16.43127153 -3.0625 24.0625 C-3.42666016 25.20138672 -3.79082031 26.34027344 -4.16601562 27.51367188 C-6.86259232 35.86259232 -6.86259232 35.86259232 -8 37 C-15.77160383 37.74920497 -20.96841673 33.12341609 -26.85546875 28.5625 C-28.25 27.3125 -28.25 27.3125 -30 25 C-29.96875 23.11328125 -29.96875 23.11328125 -29 21 C-26.515625 18.9921875 -26.515625 18.9921875 -23.25 16.875 C-22.06824404 16.09296049 -20.88861971 15.30769211 -19.7109375 14.51953125 C-18.79586426 13.90779053 -18.79586426 13.90779053 -17.86230469 13.28369141 C-14.20511939 10.76278418 -10.72607248 8.00923329 -7.22753906 5.27490234 C-4.86026712 3.42663797 -2.50120415 1.66746943 0 0 Z " fill="#FFFFFF" transform="translate(488,310)"/>
<path d="M0 0 C3.51688692 1.40439444 4.01641285 3.42084939 5.48046875 6.74609375 C7.61460133 12.24369794 8.7932615 16.99919706 8.328125 22.9296875 C6.328125 24.9296875 6.328125 24.9296875 4.2878418 25.17260742 C3.04514526 25.16644409 3.04514526 25.16644409 1.77734375 25.16015625 C0.85646973 25.15886719 -0.0644043 25.15757812 -1.01318359 25.15625 C-1.99367676 25.14335937 -2.97416992 25.13046875 -3.984375 25.1171875 C-4.97518066 25.11074219 -5.96598633 25.10429687 -6.98681641 25.09765625 C-14.25072858 25.02183006 -21.44473843 24.69330948 -28.671875 23.9296875 C-28.49219015 20.09410698 -27.7476458 19.0010828 -24.8984375 16.31640625 C-23.70885948 15.40224777 -22.50758288 14.50317171 -21.296875 13.6171875 C-20.6685376 13.14442383 -20.0402002 12.67166016 -19.39282227 12.18457031 C-18.10897604 11.22148243 -16.82095673 10.2639322 -15.52880859 9.31201172 C-13.81756128 8.03813816 -12.1416178 6.73085195 -10.47265625 5.40234375 C-9.52777344 4.66886719 -8.58289063 3.93539063 -7.609375 3.1796875 C-6.35447266 2.19742187 -6.35447266 2.19742187 -5.07421875 1.1953125 C-2.671875 -0.0703125 -2.671875 -0.0703125 0 0 Z " fill="#FFFFFF" transform="translate(531.671875,277.0703125)"/>
<path d="M0 0 C5.97147748 2.60269989 10.85309286 6.49027636 16 10.4375 C23.84745703 16.43388813 23.84745703 16.43388813 32 22 C31.69294711 25.19115677 31.36589126 26.64427239 29.03125 28.9140625 C23.53662523 32.62802183 18.44827144 35.36456884 12 37 C7.41564199 33.25749682 6.29062632 27.06790927 4.44628906 21.65820312 C3.75295177 19.63361932 3.03763917 17.61775227 2.3203125 15.6015625 C1.87364352 14.31036429 1.4282869 13.01871119 0.984375 11.7265625 C0.57928711 10.55689941 0.17419922 9.38723633 -0.24316406 8.18212891 C-1.01038843 4.95632166 -0.94214291 3.13973916 0 0 Z " fill="#FFFFFF" transform="translate(498,310)"/>
<path d="M0 0 C9.69458824 5.800181 9.69458824 5.800181 12 9 C12.00390625 11.43359375 12.00390625 11.43359375 11 14 C8.83984375 16.03515625 8.83984375 16.03515625 5.9375 18.0625 C4.865 18.82691406 3.7925 19.59132813 2.6875 20.37890625 C2.0996875 20.79285645 1.511875 21.20680664 0.90625 21.63330078 C-1.17435847 23.12500752 -3.21368427 24.6632557 -5.25 26.21484375 C-5.96534912 26.75939209 -6.68069824 27.30394043 -7.41772461 27.86499023 C-8.83112209 28.94245443 -10.24342233 30.02135971 -11.65454102 31.10180664 C-12.30608154 31.59414795 -12.95762207 32.08648926 -13.62890625 32.59375 C-14.4962439 33.25407227 -14.4962439 33.25407227 -15.38110352 33.92773438 C-17 35 -17 35 -20 36 C-21.38876265 33.22247469 -20.39873984 31.61638792 -19.46182251 28.79333496 C-19.0978688 27.73547791 -19.0978688 27.73547791 -18.7265625 26.65625 C-18.48336273 25.93135376 -18.24016296 25.20645752 -17.98959351 24.45959473 C-17.20836473 22.1373115 -16.41662979 19.81875561 -15.625 17.5 C-15.09830596 15.93641752 -14.57225609 14.37261789 -14.046875 12.80859375 C-10.19640704 1.39281409 -10.19640704 1.39281409 -9 -1 C-5.04251281 -2.3191624 -3.83618247 -1.63392957 0 0 Z M-13 24 C-12 26 -12 26 -12 26 Z " fill="#FFFFFF" transform="translate(517,261)"/>
<path d="M0 0 C1.31613281 -0.01417969 2.63226563 -0.02835938 3.98828125 -0.04296875 C7.59492315 0.18173228 11.01999601 0.51999601 13.6875 3.1875 C13.30817206 11.04639672 10.58570451 18.27449895 8.125 25.6875 C7.6952988 26.99978252 7.26625671 28.31228105 6.83789062 29.625 C5.79420858 32.81467995 4.74391585 36.0020195 3.6875 39.1875 C1.80102539 38.98608398 1.80102539 38.98608398 -0.3125 38.1875 C-1.36157227 36.12133789 -1.36157227 36.12133789 -2.12890625 33.41015625 C-2.41830078 32.42080078 -2.70769531 31.43144531 -3.00585938 30.41210938 C-3.29267578 29.36861328 -3.57949219 28.32511719 -3.875 27.25 C-4.31102539 25.73696289 -4.31102539 25.73696289 -4.75585938 24.19335938 C-5.33615378 22.17725824 -5.90734683 20.15851438 -6.46923828 18.13720703 C-7.50724508 14.50628689 -8.67480684 10.9219916 -9.87475586 7.34155273 C-10.37077145 4.90075767 -10.22156083 3.49638161 -9.3125 1.1875 C-6.32512272 -0.30618864 -3.27289093 0.00312001 0 0 Z " fill="#FFFFFF" transform="translate(492.3125,254.8125)"/>
<path d="M0 0 C1.88549805 0.01635742 1.88549805 0.01635742 4 1 C5.16589396 3.28158197 6.01894752 5.33158497 6.83203125 7.73828125 C7.07289963 8.415457 7.31376801 9.09263275 7.56193542 9.79032898 C8.06786532 11.22427996 8.5658249 12.6610642 9.05639648 14.1003418 C9.80838886 16.30047188 10.58846794 18.48904243 11.37304688 20.67773438 C11.86108325 22.07232004 12.34746677 23.46748544 12.83203125 24.86328125 C13.06525589 25.51758621 13.29848053 26.17189117 13.53877258 26.84602356 C15.52546806 32.75758459 15.52546806 32.75758459 14 36 C10.47843642 37.76078179 6.44108049 37.184646 2.5625 37.1875 C1.69044922 37.19974609 0.81839844 37.21199219 -0.08007812 37.22460938 C-0.91861328 37.22654297 -1.75714844 37.22847656 -2.62109375 37.23046875 C-3.77242798 37.23663208 -3.77242798 37.23663208 -4.94702148 37.24291992 C-7 37 -7 37 -10 35 C-9.41525306 30.3271927 -8.52920568 25.95753284 -7.1875 21.4453125 C-6.83429688 20.25421875 -6.48109375 19.063125 -6.1171875 17.8359375 C-5.74851562 16.61132812 -5.37984375 15.38671875 -5 14.125 C-4.44699219 12.25328125 -4.44699219 12.25328125 -3.8828125 10.34375 C-1.13390431 1.13390431 -1.13390431 1.13390431 0 0 Z " fill="#FFFFFF" transform="translate(492,313)"/>
<path d="M0 0 C6.27 0 12.54 0 19 0 C19.020625 2.949375 19.04125 5.89875 19.0625 8.9375 C19.071604 9.86812256 19.08070801 10.79874512 19.09008789 11.75756836 C19.09258545 12.48596924 19.09508301 13.21437012 19.09765625 13.96484375 C19.10551147 15.08814087 19.10551147 15.08814087 19.11352539 16.23413086 C19 18 19 18 18 19 C16.65732587 19.08631874 15.31025678 19.10706473 13.96484375 19.09765625 C12.87224243 19.09390991 12.87224243 19.09390991 11.75756836 19.09008789 C10.8269458 19.08098389 9.89632324 19.07187988 8.9375 19.0625 C4.5134375 19.0315625 4.5134375 19.0315625 0 19 C0 12.73 0 6.46 0 0 Z " fill="#FFFFFF" transform="translate(269,217)"/>
<path d="M0 0 C0.49737991 5.96855897 -0.54236219 10.06051741 -4 15 C-8.43171985 19.90277033 -12.49083594 22.77953174 -19 24 C-17.88212346 15.07367244 -16.03848919 7.52293738 -9.0625 1.4375 C-5.74391335 -0.12020394 -3.61999807 -0.34476172 0 0 Z " fill="#FFFFFF" transform="translate(512,220)"/>
</svg>
